<svg viewBox="0 0 143 89" xmlns="http://www.w3.org/2000/svg" fill="#A7A7A7">
  <path d="M46.272 0L1.73.006 0 44.055 1.73 89h44.495V69.204H22.122l-1.73-25.146 1.73-24.254 24.15-.097V0zm95.005 88.928H96.78V69.133h24.103l1.732-25.075-1.732-24.328-24.062-.023V0h44.44L143 44.058l-1.723 44.87zm-93.89-68.606l23.94-1.449 23.943 1.45 1.929 23.94-1.93 23.943-23.941 1.446-23.942-1.446-1.449-23.942 1.45-23.942zm13.68 13.68l-1.45 10.262 1.45 10.261 10.26 1.204 10.26-1.204 1.206-10.261-1.207-10.261-10.258-1.446-10.261 1.445z" fill-rule="evenodd"/>
</svg>
